<?xml version="1.0" encoding="UTF-8"?>
<!DOCTYPE svg PUBLIC "-//W3C//DTD SVG 1.1//EN" "http://www.w3.org/Graphics/SVG/1.1/DTD/svg11.dtd">
<svg xmlns="http://www.w3.org/2000/svg" version="1.1" width="678px" height="605px" style="shape-rendering:geometricPrecision; text-rendering:geometricPrecision; image-rendering:optimizeQuality; fill-rule:evenodd; clip-rule:evenodd" xmlns:xlink="http://www.w3.org/1999/xlink">
<g><path style="opacity:0.945" fill="#fdfefd" d="M 13.5,163.5 C 38.1689,163.333 62.8356,163.5 87.5,164C 90.196,164.69 92.3626,166.19 94,168.5C 95.4855,216.107 95.9855,263.773 95.5,311.5C 129.5,311.5 163.5,311.5 197.5,311.5C 197.333,265.499 197.5,219.499 198,173.5C 198.272,168.562 200.772,165.396 205.5,164C 259.5,163.333 313.5,163.333 367.5,164C 384.475,165.156 400.142,170.156 414.5,179C 425.809,188.312 432.975,200.145 436,214.5C 436.047,199.099 436.714,183.766 438,168.5C 439.637,166.19 441.804,164.69 444.5,164C 480.321,164.869 513.321,174.869 543.5,194C 552.267,200.763 560.433,208.263 568,216.5C 568.333,201.5 568.667,186.5 569,171.5C 569.69,168.804 571.19,166.637 573.5,165C 586.767,163.86 600.101,163.36 613.5,163.5C 625.833,163.667 638.167,163.833 650.5,164C 655.228,165.396 657.728,168.562 658,173.5C 658.667,244.5 658.667,315.5 658,386.5C 657.332,390.499 655.165,393.332 651.5,395C 638.72,396.128 625.886,396.628 613,396.5C 601.5,396.333 590,396.167 578.5,396C 574.035,395.687 570.868,393.521 569,389.5C 562.551,363.399 548.551,342.399 527,326.5C 526.667,346.833 526.333,367.167 526,387.5C 524.308,392.522 520.808,395.355 515.5,396C 491.45,396.96 467.45,396.627 443.5,395C 440,394.167 437.833,392 437,388.5C 436.667,381.167 436.333,373.833 436,366.5C 425.055,380.228 410.889,388.728 393.5,392C 386.898,393.434 380.232,394.434 373.5,395C 284.993,396.125 196.493,396.625 108,396.5C 77.5,396.333 47,396.167 16.5,396C 12.0346,395.687 8.86793,393.521 7,389.5C 5.34299,317.557 5.00966,245.557 6,173.5C 6.47131,168.542 8.97131,165.209 13.5,163.5 Z M 292.5,235.5 C 305.837,235.333 319.171,235.5 332.5,236C 334.91,236.758 335.91,238.425 335.5,241C 335.646,243.034 334.98,244.701 333.5,246C 319.837,246.5 306.171,246.667 292.5,246.5C 292.5,242.833 292.5,239.167 292.5,235.5 Z M 435.5,246.5 C 436.662,262.661 436.828,278.995 436,295.5C 429.775,287.801 422.275,281.635 413.5,277C 424.921,269.751 432.254,259.585 435.5,246.5 Z M 292.5,314.5 C 307.837,314.333 323.17,314.5 338.5,315C 343.473,315.491 346.807,317.991 348.5,322.5C 348.144,325.688 346.477,327.855 343.5,329C 339.326,330.763 334.993,331.929 330.5,332.5C 317.883,331.519 305.217,331.186 292.5,331.5C 292.5,325.833 292.5,320.167 292.5,314.5 Z"/></g>
<g><path style="opacity:1" fill="#3fcc95" d="M 16.5,174.5 C 39.1667,174.5 61.8333,174.5 84.5,174.5C 84.1678,224.003 84.5011,273.336 85.5,322.5C 123.5,322.5 161.5,322.5 199.5,322.5C 199.5,343.5 199.5,364.5 199.5,385.5C 138.5,385.5 77.5,385.5 16.5,385.5C 16.5,315.167 16.5,244.833 16.5,174.5 Z"/></g>
<g><path style="opacity:1" fill="#7fd9b3" d="M 16.5,174.5 C 39.3273,173.502 62.3273,173.169 85.5,173.5C 85.5,223.167 85.5,272.833 85.5,322.5C 84.5011,273.336 84.1678,224.003 84.5,174.5C 61.8333,174.5 39.1667,174.5 16.5,174.5 Z"/></g>
<g><path style="opacity:1" fill="#3fcc96" d="M 208.5,173.5 C 263.181,173.082 317.847,173.582 372.5,175C 413.177,180.009 431.01,202.842 426,243.5C 422.481,256.352 414.648,265.519 402.5,271C 396.947,273.61 391.281,275.943 385.5,278C 401.898,280.946 415.731,288.446 427,300.5C 433.299,308.766 436.465,318.099 436.5,328.5C 436.075,356.767 422.075,374.267 394.5,381C 385.935,382.983 377.268,384.316 368.5,385C 315.168,385.5 261.834,385.667 208.5,385.5C 208.5,314.833 208.5,244.167 208.5,173.5 Z M 292.5,235.5 C 292.5,239.167 292.5,242.833 292.5,246.5C 306.171,246.667 319.837,246.5 333.5,246C 334.98,244.701 335.646,243.034 335.5,241C 335.91,238.425 334.91,236.758 332.5,236C 319.171,235.5 305.837,235.333 292.5,235.5 Z M 292.5,314.5 C 292.5,320.167 292.5,325.833 292.5,331.5C 305.217,331.186 317.883,331.519 330.5,332.5C 334.993,331.929 339.326,330.763 343.5,329C 346.477,327.855 348.144,325.688 348.5,322.5C 346.807,317.991 343.473,315.491 338.5,315C 323.17,314.5 307.837,314.333 292.5,314.5 Z"/></g>
<g><path style="opacity:1" fill="#7fd9b3" d="M 450.5,174.5 C 449.5,174.5 448.5,174.5 447.5,174.5C 447.5,244.833 447.5,315.167 447.5,385.5C 446.501,315.002 446.167,244.335 446.5,173.5C 448.099,173.232 449.432,173.566 450.5,174.5 Z"/></g>
<g><path style="opacity:1" fill="#3fcc96" d="M 450.5,174.5 C 484.778,176.322 515.778,187.155 543.5,207C 557.838,219.187 569.171,233.687 577.5,250.5C 577.783,251.289 578.283,251.956 579,252.5C 579.5,226.502 579.667,200.502 579.5,174.5C 602.167,174.5 624.833,174.5 647.5,174.5C 647.5,244.833 647.5,315.167 647.5,385.5C 624.49,385.833 601.49,385.5 578.5,384.5C 568.842,349.513 547.842,323.846 515.5,307.5C 515.5,333.5 515.5,359.5 515.5,385.5C 492.833,385.5 470.167,385.5 447.5,385.5C 447.5,315.167 447.5,244.833 447.5,174.5C 448.5,174.5 449.5,174.5 450.5,174.5 Z"/></g>
<g><path style="opacity:1" fill="#7fd9b3" d="M 647.5,174.5 C 624.833,174.5 602.167,174.5 579.5,174.5C 579.667,200.502 579.5,226.502 579,252.5C 578.283,251.956 577.783,251.289 577.5,250.5C 578.498,225.005 578.831,199.339 578.5,173.5C 601.673,173.169 624.673,173.502 647.5,174.5 Z"/></g>
<g><path style="opacity:0.958" fill="#fdfefd" d="M 281.5,225.5 C 299.503,225.333 317.503,225.5 335.5,226C 347.038,231.721 349.538,240.221 343,251.5C 340.559,253.969 337.726,255.802 334.5,257C 316.836,257.5 299.17,257.667 281.5,257.5C 281.5,246.833 281.5,236.167 281.5,225.5 Z M 292.5,235.5 C 292.5,239.167 292.5,242.833 292.5,246.5C 306.171,246.667 319.837,246.5 333.5,246C 334.98,244.701 335.646,243.034 335.5,241C 335.91,238.425 334.91,236.758 332.5,236C 319.171,235.5 305.837,235.333 292.5,235.5 Z"/></g>
<g><path style="opacity:0.941" fill="#fdfefd" d="M 281.5,303.5 C 301.213,303.062 320.88,303.562 340.5,305C 356.477,307.905 361.644,316.738 356,331.5C 352.464,336.02 347.964,339.186 342.5,341C 322.212,342.44 301.879,342.94 281.5,342.5C 281.5,329.5 281.5,316.5 281.5,303.5 Z M 292.5,314.5 C 292.5,320.167 292.5,325.833 292.5,331.5C 305.217,331.186 317.883,331.519 330.5,332.5C 334.993,331.929 339.326,330.763 343.5,329C 346.477,327.855 348.144,325.688 348.5,322.5C 346.807,317.991 343.473,315.491 338.5,315C 323.17,314.5 307.837,314.333 292.5,314.5 Z"/></g>
</svg>
